<?xml version="1.0" encoding="UTF-8"?>
<svg xmlns="http://www.w3.org/2000/svg" width="1200" height="675" viewBox="0 0 1200 675" role="img" aria-label="Application preview placeholder">
  <defs>
    <linearGradient id="bg" x1="0" y1="0" x2="1" y2="1">
      <stop offset="0%" stop-color="#f3f4f6"/>
      <stop offset="100%" stop-color="#e5e7eb"/>
    </linearGradient>
  </defs>
  <rect x="0" y="0" width="1200" height="675" fill="url(#bg)"/>

  <rect x="60" y="60" width="1080" height="555" rx="16" fill="#ffffff" stroke="#d1d5db" stroke-width="2"/>

  <g>
    <rect x="100" y="100" width="300" height="200" rx="12" fill="#f9fafb" stroke="#e5e7eb"/>
    <rect x="420" y="100" width="620" height="40" rx="8" fill="#f9fafb" stroke="#e5e7eb"/>
    <rect x="420" y="160" width="620" height="40" rx="8" fill="#f9fafb" stroke="#e5e7eb"/>
    <rect x="420" y="220" width="420" height="40" rx="8" fill="#f9fafb" stroke="#e5e7eb"/>

    <rect x="100" y="320" width="940" height="60" rx="12" fill="#eef2ff" stroke="#c7d2fe"/>
    <rect x="100" y="400" width="940" height="60" rx="12" fill="#ecfeff" stroke="#a5f3fc"/>
    <rect x="100" y="480" width="940" height="60" rx="12" fill="#fef3c7" stroke="#fcd34d"/>
  </g>

  <g font-family="system-ui, -apple-system, Segoe UI, Roboto, Ubuntu, Cantarell, Noto Sans, Helvetica Neue, Arial, sans-serif" fill="#111827" text-anchor="middle">
    <text x="600" y="340" font-size="28" font-weight="600">Application Preview</text>
    <text x="600" y="380" font-size="20" fill="#374151">Preview coming soon</text>
    <text x="600" y="410" font-size="14" fill="#6b7280">This placeholder will be replaced with a real screenshot</text>
  </g>

  <g fill="#9ca3af" font-size="12" font-family="monospace">
    <text x="70" y="640">upload-widget-server</text>
    <text x="1130" y="640" text-anchor="end">v1.0</text>
  </g>
</svg>